<svg width="18" height="18" viewBox="0 0 18 18" fill="none" xmlns="http://www.w3.org/2000/svg">
<path d="M0 0V18H18V0H0ZM4.4143 3.53869C5.12725 3.54672 5.82956 4.03857 5.86011 4.89001C5.87535 5.64714 5.21554 6.22383 4.39563 6.24133H4.37586C3.67 6.23319 2.98068 5.72899 2.94873 4.89001C2.95879 4.14132 3.58813 3.55645 4.4143 3.53869V3.53869ZM12.063 7.11585C12.8468 7.12071 13.5866 7.35324 14.1943 7.9728C14.8259 8.6772 15.0287 9.64845 15.0513 10.6359V15.1271H12.4629V10.9413C12.4571 10.1568 12.1884 9.20313 11.15 9.17139C10.5415 9.17787 10.1123 9.53149 9.81847 10.1228C9.73825 10.3131 9.7267 10.5319 9.72289 10.7501V15.1271H7.13562C7.14552 12.9389 7.15912 10.7509 7.15429 8.56275C7.15429 7.94118 7.14831 7.52265 7.13562 7.30701H9.72289V8.41003C9.94251 8.09769 10.1861 7.80147 10.5128 7.56298C10.956 7.24671 11.4883 7.12547 12.063 7.11585V7.11585ZM3.10144 7.30701H5.68872V15.1271H3.10144V7.30701V7.30701Z" fill="#454851"/>
</svg>
