<svg xmlns="http://www.w3.org/2000/svg" class="brand__cyberlabs" width="156.504" height="16.637" viewBox="0 0 156.504 16.637"> <g id="Group_15" data-name="Group 15" transform="translate(-2567.208 298)"> <g id="Group_14" data-name="Group 14" transform="translate(1094.045 -417.138)"> <g id="Group_1" data-name="Group 1" transform="translate(1531.367 119.334)"> <path id="Path_9" data-name="Path 9" d="M1631.014,120.742c0,1.119,0,1.119-1.177,1.119h-7.257v4.777h6.819c1.142,0,1.142,0,1.142,1.061s0,1.061-1.142,1.061h-6.819v4.857h7.3c1.177,0,1.177,0,1.177,1.1,0,1.142,0,1.142-1.177,1.142h-7.811c-1.846,0-1.846,0-1.846-1.823V121.445c0-1.789,0-1.789,1.846-1.811h7.765C1631.014,119.634,1631.014,119.634,1631.014,120.742Z" transform="translate(-1620.226 -119.634)" fill="#fff"></path> </g> <g id="Group_2" data-name="Group 2" transform="translate(1566.037 119.334)"> <path id="Path_10" data-name="Path 10" d="M1709,119.634c1.177,0,1.177,0,1.177,1.211v12.68h7.038c1.2,0,1.2,0,1.2,1.177,0,1.154,0,1.154-1.2,1.154h-7.753c-1.638,0-1.638,0-1.638-1.627V120.845C1707.828,119.634,1707.828,119.634,1709,119.634Z" transform="translate(-1707.828 -119.634)" fill="#fff"></path> </g> <g id="Group_3" data-name="Group 3" transform="translate(1617.495 119.138)"> <path id="Path_11" data-name="Path 11" d="M1848.609,120.454c.312.219.462.346.462.554,0,.161-.058.266-.462.854-.4.554-.531.761-.75.761-.184,0-.38-.161-.808-.381a5.872,5.872,0,0,0-3.184-.842c-2.411,0-3.323,1.119-3.323,2.389,0,1.338.9,1.9,3.727,2.434,4,.761,5.745,2.007,5.745,4.7,0,2.861-2.227,4.857-5.988,4.857a9.1,9.1,0,0,1-5.584-1.684c-.392-.289-.6-.473-.6-.727,0-.207.116-.357.508-.854.358-.439.531-.7.8-.7.173,0,.357.173.773.439a6.789,6.789,0,0,0,4.223,1.234c2.181,0,3.507-.946,3.507-2.55,0-1.35-1.188-1.927-4.015-2.457-3.8-.739-5.446-2.042-5.446-4.684,0-2.839,2.261-4.65,5.688-4.65A8.29,8.29,0,0,1,1848.609,120.454Z" transform="translate(-1837.844 -119.138)" fill="#fff"></path> </g> <g id="Group_4" data-name="Group 4" transform="translate(1490.506 119.358)"> <path id="Path_12" data-name="Path 12" d="M1534.15,120.628c-.5-1.064-.5-1.064-1.678-.509l-6.689,3.158-6.793-3.208c-1.193-.564-1.193-.564-1.7.5-.493,1.043-.493,1.043.7,1.607l6.6,3.117v9.233c0,1.349,0,1.349,1.177,1.349,1.154,0,1.154,0,1.154-1.349v-9.212l6.541-3.089C1534.642,121.672,1534.642,121.672,1534.15,120.628Z" transform="translate(-1516.984 -119.695)" fill="#fff"></path> </g> <g id="Group_5" data-name="Group 5" transform="translate(1473.163 119.138)"> <path id="Path_13" data-name="Path 13" d="M1485.862,122.9a2.439,2.439,0,0,1,.231.75c0,.254-.265.334-.842.577a3.656,3.656,0,0,1-.946.323c-.242,0-.277-.266-.5-.646a4.212,4.212,0,0,0-3.877-2.5c-2.515,0-4.142,1.881-4.349,4.407a26.889,26.889,0,0,0,0,3.346c.208,2.561,1.834,4.35,4.349,4.35a4.145,4.145,0,0,0,3.831-2.469c.242-.45.242-.7.554-.7a3.542,3.542,0,0,1,.911.266c.819.289.865.289.865.6a2.88,2.88,0,0,1-.288.889,6.284,6.284,0,0,1-5.873,3.692,6.635,6.635,0,0,1-6.692-6.461,22.093,22.093,0,0,1,0-3.7,6.653,6.653,0,0,1,6.692-6.473A6.286,6.286,0,0,1,1485.862,122.9Z" transform="translate(-1473.162 -119.138)" fill="#fff"></path> </g> <g id="Group_7" data-name="Group 7" transform="translate(1513.599 119.334)"> <g id="Group_6" data-name="Group 6"> <path id="Path_14" data-name="Path 14" d="M1584.885,127.479v-.034a3.509,3.509,0,0,0,2.1-3.588c0-2.25-1.638-4.223-4.65-4.223h-5.169c-1.834,0-1.834,0-1.834,1.811v12.587c0,1.823,0,1.823,1.834,1.823h5.342c2.746,0,4.926-1.373,4.926-4.638A3.554,3.554,0,0,0,1584.885,127.479Zm-7.211-5.619h4.43c1.684,0,2.561.808,2.561,2.342,0,1.442-.8,2.342-2.561,2.342h-1.916a.171.171,0,0,0-.171.171v1.619a.171.171,0,0,0,.171.171h2.093a2.774,2.774,0,0,1,2.709,3.435c-.283,1.1-1.163,1.7-2.724,1.7h-4.6Z" transform="translate(-1575.332 -119.634)" fill="#fff"></path> </g> </g> <g id="Group_9" data-name="Group 9" transform="translate(1548.073 119.334)"> <g id="Group_8" data-name="Group 8" transform="translate(0)"> <path id="Path_15" data-name="Path 15" d="M1674.495,134.033l-3.653-4.39a.279.279,0,0,1,.144-.449,4.223,4.223,0,0,0,3.255-4.471c0-3.115-2.146-5.088-5.342-5.088h-4.7c-1.765,0-1.765,0-1.765,1.707v13.407c0,1.107,0,1.107,1.177,1.107s1.188,0,1.188-1.107v-12.62a.279.279,0,0,1,.279-.279h3.678c2.123,0,3.127,1.142,3.127,2.884,0,1.684-.888,2.838-3.369,2.838H1667.4a.279.279,0,0,0-.28.279V129.5a.279.279,0,0,0,.28.279h0c.577,0,.6,0,.935.416l4.338,5.4c.219.277.369.4.554.4.231,0,.381-.116.888-.531.6-.5.681-.646.681-.842A.9.9,0,0,0,1674.495,134.033Z" transform="translate(-1662.438 -119.634)" fill="#fff"></path> </g> </g> <g id="Group_11" data-name="Group 11" transform="translate(1580.921 119.334)"> <g id="Group_10" data-name="Group 10"> <path id="Path_16" data-name="Path 16" d="M1760.166,134.263l-4.88-13.476c-.415-1.154-.415-1.154-2.365-1.154-1.9,0-1.9,0-2.319,1.142l-4.961,13.568a2.286,2.286,0,0,0-.208.727c0,.242.2.358,1,.623a3.31,3.31,0,0,0,.9.231c.231,0,.312-.208.484-.715l4.592-12.853c.161-.427.161-.427.519-.427.381,0,.369,0,.519.416l2.106,5.926a.279.279,0,0,1-.263.373h-2.463a.28.28,0,0,0-.28.28v1.564a.28.28,0,0,0,.28.279h3.4a.279.279,0,0,1,.263.186l1.526,4.291c.219.611.3.681.508.681a3.735,3.735,0,0,0,.981-.254c.738-.266.911-.381.911-.611A3.1,3.1,0,0,0,1760.166,134.263Z" transform="translate(-1745.433 -119.634)" fill="#fff"></path> </g> </g> <g id="Group_13" data-name="Group 13" transform="translate(1600.64 119.334)"> <g id="Group_12" data-name="Group 12"> <path id="Path_17" data-name="Path 17" d="M1804.811,127.479v-.034a3.509,3.509,0,0,0,2.1-3.588c0-2.25-1.638-4.223-4.65-4.223h-5.169c-1.834,0-1.834,0-1.834,1.811v12.587c0,1.823,0,1.823,1.834,1.823h5.342c2.746,0,4.927-1.373,4.927-4.638A3.554,3.554,0,0,0,1804.811,127.479Zm-7.211-5.619h4.43c1.684,0,2.562.808,2.562,2.342,0,1.442-.8,2.342-2.562,2.342h-1.916a.171.171,0,0,0-.171.171v1.619a.171.171,0,0,0,.171.171h2.093a2.774,2.774,0,0,1,2.709,3.435c-.283,1.1-1.163,1.7-2.724,1.7h-4.6Z" transform="translate(-1795.258 -119.634)" fill="#fff"></path> </g> </g> </g> </g> </svg>