<svg width="66" height="66" viewBox="0 0 66 66" fill="none" xmlns="http://www.w3.org/2000/svg">
<rect x="6" y="6" width="54" height="54" rx="8" fill="#F7DF1E"/>
<g clip-path="url(#clip0)">
<path d="M49.0622 5.17955L5.17957 16.9379L16.9379 60.8205L60.8205 49.0622L49.0622 5.17955Z" fill="#F7DF1E"/>
<path d="M43.8438 43.3227C45.1144 44.5291 46.5487 45.2818 48.5826 44.7368C50.2913 44.279 51.1539 43.1325 50.8378 41.9526C50.4589 40.5386 49.2032 40.3383 47.1021 40.0196L45.9527 39.8535C42.6374 39.3831 40.235 38.3246 39.3354 34.9673C38.5068 31.8746 40.2323 28.8889 43.915 27.9021C46.5368 27.1996 48.6662 27.607 50.6646 29.6322L48.006 32.5544C46.9593 31.4761 46.0628 31.1811 44.8786 31.4984C43.6708 31.822 43.1106 32.7933 43.3788 33.7943C43.7103 35.0313 44.6107 35.3269 46.5852 35.619L47.7344 35.7844C51.6407 36.348 54.0293 37.3497 54.952 40.7934C55.9468 44.506 53.5754 47.3214 49.6587 48.3709C45.829 49.3971 42.8659 48.235 41.0144 46.1675L43.8438 43.3227ZM29.3726 47.5832C30.3284 48.559 31.178 49.3727 32.5948 48.9931C33.9496 48.6301 34.6622 47.871 34.1099 45.8099L30.3529 31.7884L34.4765 30.6835L38.2484 44.7607C39.3926 49.0306 37.4099 51.6447 33.7558 52.6239C30.4541 53.5085 28.0843 52.3122 26.5605 50.5148L29.3726 47.5832Z" fill="black"/>
</g>
<rect x="2.73008" y="15.5237" width="49.4306" height="49.4306" transform="rotate(-15 2.73008 15.5237)" stroke="white" stroke-width="4"/>
<defs>
<clipPath id="clip0">
</clipPath>
</defs>
</svg>
