<svg width="106" height="110" viewBox="0 0 106 110" fill="none" xmlns="http://www.w3.org/2000/svg">
<g filter="url(#filter0_d)">
<path d="M55.4911 40.8435C54.3887 39.3721 53.2594 37.9861 52.1155 36.6995C53.4895 35.5532 54.7896 34.6517 55.9665 33.9996C57.4198 33.1943 58.5633 32.8369 59.3636 32.7686H59.629C59.8797 32.7686 59.9999 32.8078 60.0529 32.8318C60.0863 32.8571 60.2013 32.9575 60.351 33.2375C60.528 33.5687 60.7056 34.0644 60.8402 34.7463C61.1096 36.1116 61.1611 37.9886 60.8939 40.2072L60.8932 40.2139C60.8377 40.6876 60.7662 41.1766 60.6812 41.6786C59.021 41.3383 57.2835 41.0581 55.4911 40.8435ZM19.2422 62.291C21.3551 63.9543 24.163 65.3886 27.4253 66.5346L57.629 26.2046C56.0881 26.5069 54.5027 27.1295 52.9317 27.9757C51.0881 28.9688 49.1861 30.3116 47.2897 31.9424C45.3939 30.3227 43.4927 28.9909 41.65 28.0065C40.0755 27.1653 38.488 26.5483 36.9464 26.25V26.0618H35.429C35.2674 26.0536 35.1065 26.0494 34.9464 26.0494H32.9464V26.3001C32.3262 26.456 31.7254 26.6924 31.1552 27.0207L31.1542 27.0213C28.6538 28.4628 27.4148 31.2503 26.9696 34.3192C26.5848 36.9717 26.7427 40.1095 27.3731 43.4953C24.124 44.6449 21.3284 46.0784 19.2249 47.7383C16.7913 49.6586 15 52.1237 15 55.0062C15 57.8963 16.7991 60.3677 19.2422 62.291ZM34.9464 32.818H35.2238C36.0217 32.8861 37.1664 33.242 38.622 34.0427C39.7987 34.6901 41.0986 35.5842 42.4709 36.7202C41.3383 37.9977 40.2161 39.3744 39.1269 40.844C37.3265 41.0589 35.5842 41.3402 33.9195 41.686C33.8365 41.2018 33.7652 40.7255 33.7048 40.2581C33.4326 38.0417 33.4786 36.1658 33.7429 34.7991C33.875 34.1158 34.0506 33.6178 34.2266 33.2841C34.4053 32.9453 34.5354 32.8654 34.5352 32.8656L34.5403 32.8625C34.5481 32.8598 34.5648 32.8544 34.5928 32.8483C34.6603 32.8333 34.7744 32.818 34.9464 32.818ZM55.5104 69.156C57.3118 68.941 59.0552 68.6594 60.7208 68.3133C60.8055 68.8017 60.8758 69.2767 60.9305 69.7392L60.9317 69.7485C61.2047 71.9674 61.1589 73.8454 60.8944 75.2133C60.7622 75.8965 60.5866 76.3945 60.4106 76.7283C60.2319 77.0671 60.1018 77.1469 60.102 77.1468L60.0969 77.1498C60.0892 77.1526 60.0724 77.1579 60.0444 77.1641C59.9769 77.179 59.8628 77.1943 59.6908 77.1943C58.8912 77.1943 57.649 76.8561 56.0152 75.9573C54.8385 75.3099 53.5386 74.4158 52.1664 73.2798C53.2989 72.0023 54.4211 70.6256 55.5104 69.156ZM30.9726 55.0334C30.26 56.703 29.6376 58.35 29.106 59.9647C28.6316 59.7889 28.1733 59.6073 27.7329 59.42C25.6744 58.5418 24.0691 57.5628 23.0161 56.6499C22.4901 56.1938 22.1478 55.7937 21.9483 55.476C21.7461 55.1541 21.7439 55.0042 21.7439 55.0062L21.7439 55.0061C21.744 55.0024 21.75 54.8509 21.9491 54.5332C22.149 54.2144 22.4916 53.8133 23.0172 53.3569C24.0695 52.4433 25.6738 51.4649 27.7299 50.5936L27.73 50.5936L27.7401 50.5893C28.1647 50.4066 28.6108 50.2307 29.0753 50.0595C29.6164 51.6881 30.2491 53.3493 30.9726 55.0334ZM33.7433 69.8051L33.7441 69.7985C33.7995 69.3248 33.871 68.8358 33.9561 68.3338C35.6162 68.6741 37.3537 68.9543 39.1461 69.1688C40.2485 70.6403 41.3778 72.0262 42.5218 73.3129C41.1477 74.4592 39.8476 75.3606 38.6707 76.0127C37.0551 76.908 35.8224 77.2498 35.0184 77.256C34.7391 77.2475 34.6169 77.1976 34.5906 77.1851C34.5685 77.1697 34.4474 77.0765 34.2862 76.7749C34.1092 76.4437 33.9316 75.9479 33.797 75.266C33.5276 73.9007 33.4761 72.0237 33.7433 69.8051ZM66.8949 59.4187L66.8949 59.4187L66.8848 59.4231C66.4602 59.6057 66.014 59.7817 65.5495 59.9529C65.0085 58.3242 64.3758 56.663 63.6523 54.9789C64.3649 53.3091 64.9875 51.6619 65.5191 50.0469C65.9964 50.2231 66.4594 50.4054 66.9073 50.5937C68.9644 51.4715 70.5686 52.45 71.6211 53.3625C72.1471 53.8185 72.4895 54.2186 72.6889 54.5363C72.8682 54.8218 72.8903 54.972 72.893 55.001C72.8842 55.0977 72.7272 55.686 71.6101 56.6546C70.5557 57.569 68.9508 58.5476 66.8949 59.4187ZM54.1505 58.9278C53.378 60.2648 52.5946 61.5355 51.7937 62.7294C50.3127 62.837 48.8188 62.894 47.3186 62.894C45.8313 62.894 44.3394 62.8372 42.8628 62.7363C42.0552 61.5399 41.2635 60.2781 40.4948 58.9576C39.7464 57.6674 39.0535 56.3589 38.4097 55.0381C39.0458 53.722 39.7448 52.4054 40.487 51.1087C41.2595 49.772 42.0428 48.5014 42.8435 47.3077C44.3245 47.2001 45.8184 47.1431 47.3186 47.1431C48.8059 47.1431 50.2978 47.1999 51.7744 47.3008C52.5821 48.4973 53.3738 49.7592 54.1426 51.0799C54.8901 52.3684 55.5822 53.6753 56.2253 54.9944C55.5811 56.3193 54.8894 57.6371 54.1505 58.9278Z" fill="#61DAFB" stroke="white" stroke-width="4"/>
<path d="M47.3063 62.6546C51.5304 62.6546 54.9547 59.2303 54.9547 55.0062C54.9547 50.782 51.5304 47.3577 47.3063 47.3577C43.0822 47.3577 39.6578 50.782 39.6578 55.0062C39.6578 59.2303 43.0822 62.6546 47.3063 62.6546Z" fill="#61DAFB" stroke="white" stroke-width="4"/>
</g>
<defs>
<filter id="filter0_d" x="-11" y="0" width="116.637" height="110" filterUnits="userSpaceOnUse" color-interpolation-filters="sRGB">
<feFlood flood-opacity="0" result="BackgroundImageFix"/>
<feColorMatrix in="SourceAlpha" type="matrix" values="0 0 0 0 0 0 0 0 0 0 0 0 0 0 0 0 0 0 127 0"/>
<feOffset/>
<feGaussianBlur stdDeviation="12"/>
<feColorMatrix type="matrix" values="0 0 0 0 0 0 0 0 0 0 0 0 0 0 0 0 0 0 0.25 0"/>
<feBlend mode="normal" in2="BackgroundImageFix" result="effect1_dropShadow"/>
<feBlend mode="normal" in="SourceGraphic" in2="effect1_dropShadow" result="shape"/>
</filter>
</defs>
</svg>
